<svg width="303" height="121" viewBox="0 0 303 121" fill="none" xmlns="http://www.w3.org/2000/svg">
<g clip-path="url(#clip0_203_970)">
<path d="M133.601 40.9561H137.788V50.0283H144.954V40.9561H149.141V63.1593H144.954V54.0232H137.788V63.1593H133.601V40.9561Z" fill="#1C1C1C"/>
<path d="M164.241 58.4015H156.691L155.612 63.1593H151.234L156.531 40.9561H164.397L169.694 63.1593H165.316L164.237 58.4015H164.241ZM157.578 54.4067H163.319L160.75 43.0533H160.179L157.578 54.4067Z" fill="#1C1C1C"/>
<path d="M179.622 59.7996C180.425 59.7996 181.084 59.6798 181.603 59.4361C182.122 59.1924 182.522 58.8648 182.81 58.4533C183.093 58.0419 183.289 57.5665 183.397 57.0272C183.501 56.4879 183.557 55.9326 183.557 55.3613V54.7901H187.743V55.3613C187.743 58.0059 187.052 60.0393 185.666 61.4655C184.28 62.8916 182.266 63.6067 179.626 63.6067C176.985 63.6067 175.08 62.8357 173.601 61.2897C172.119 59.7477 171.38 57.4946 171.38 54.5344V49.5848C171.38 48.1666 171.572 46.8963 171.952 45.7618C172.331 44.6312 172.882 43.6804 173.601 42.9054C174.321 42.1344 175.187 41.5432 176.202 41.1277C177.217 40.7163 178.359 40.5085 179.626 40.5085C180.892 40.5085 182.099 40.7003 183.113 41.0798C184.128 41.4593 184.979 42.0106 185.666 42.7297C186.353 43.4487 186.872 44.3156 187.22 45.3303C187.567 46.345 187.743 47.4875 187.743 48.7539V49.3251H183.557V48.7539C183.557 48.2266 183.493 47.6953 183.365 47.1679C183.237 46.6406 183.025 46.1652 182.73 45.7418C182.434 45.3183 182.031 44.9748 181.523 44.7111C181.016 44.4475 180.381 44.3156 179.622 44.3156C178.923 44.3156 178.319 44.4475 177.812 44.7111C177.305 44.9748 176.881 45.3343 176.542 45.7897C176.202 46.2451 175.954 46.7724 175.795 47.3757C175.635 47.9789 175.555 48.6061 175.555 49.2612V54.842C175.555 55.5611 175.631 56.2202 175.779 56.8235C175.926 57.4267 176.158 57.95 176.478 58.3934C176.797 58.8368 177.213 59.1804 177.732 59.4241C178.251 59.6678 178.879 59.7876 179.618 59.7876L179.622 59.7996Z" fill="#1C1C1C"/>
<path d="M195.577 63.1593H191.39V40.9561H195.577V50.0603H196.496L202.364 40.9561H207.09V41.1478L200.239 51.7741V52.3453L207.47 62.9716V63.1633H202.552L196.496 54.0591H195.577V63.1633V63.1593Z" fill="#1C1C1C"/>
<path d="M209.755 40.9561H225.742V44.9509H219.842V63.1554H215.655V44.9509H209.755V40.9561Z" fill="#1C1C1C"/>
<path d="M228.658 49.5847C228.658 46.7084 229.381 44.4793 230.831 42.8934C232.278 41.3074 234.283 40.5125 236.844 40.5125C239.404 40.5125 241.406 41.3034 242.856 42.8934C244.302 44.4793 245.029 46.7124 245.029 49.5847V54.5343C245.029 57.4945 244.306 59.7476 242.856 61.2896C241.406 62.8316 239.404 63.6066 236.844 63.6066C234.283 63.6066 232.282 62.8356 230.831 61.2896C229.381 59.7476 228.658 57.4945 228.658 54.5343V49.5847ZM236.844 59.7995C237.607 59.7995 238.238 59.6797 238.745 59.436C239.253 59.1923 239.664 58.8487 239.984 58.4053C240.303 57.9619 240.523 57.4346 240.651 56.8194C240.779 56.2082 240.843 55.529 240.843 54.79V49.333C240.843 48.634 240.767 47.9788 240.619 47.3676C240.471 46.7564 240.239 46.2251 239.92 45.7816C239.604 45.3382 239.189 44.9827 238.681 44.719C238.174 44.4554 237.559 44.3235 236.844 44.3235C236.129 44.3235 235.509 44.4554 235.006 44.719C234.499 44.9827 234.087 45.3382 233.768 45.7816C233.448 46.2251 233.216 46.7524 233.069 47.3676C232.921 47.9828 232.845 48.6379 232.845 49.333V54.79C232.845 55.529 232.909 56.2082 233.037 56.8194C233.164 57.4346 233.384 57.9619 233.704 58.4053C234.019 58.8487 234.435 59.1923 234.942 59.436C235.449 59.6797 236.085 59.7995 236.844 59.7995Z" fill="#1C1C1C"/>
<path d="M247.69 59.1644H249.783V44.9548H247.69V40.96H257.429C258.488 40.96 259.422 41.1078 260.237 41.4034C261.052 41.699 261.739 42.1025 262.299 42.6098C262.858 43.1172 263.281 43.7244 263.569 44.4355C263.857 45.1426 263.996 45.9096 263.996 46.7365V47.116C263.996 48.3864 263.641 49.401 262.934 50.1601C262.227 50.9231 261.332 51.4504 260.253 51.746V52.3173C261.332 52.6129 262.223 53.1482 262.934 53.9192C263.641 54.6902 263.996 55.7129 263.996 56.9792V57.3588C263.996 58.1817 263.853 58.9487 263.569 59.6598C263.285 60.3669 262.862 60.9821 262.299 61.4974C261.739 62.0167 261.052 62.4242 260.237 62.7198C259.422 63.0154 258.488 63.1633 257.429 63.1633H247.69V59.1684V59.1644ZM253.969 50.0282H257.013C257.9 50.0282 258.619 49.8445 259.171 49.473C259.722 49.1014 259.994 48.4742 259.994 47.5874V47.3956C259.994 46.5088 259.718 45.8776 259.171 45.5101C258.619 45.1386 257.9 44.9548 257.013 44.9548H253.969V50.0282ZM253.969 59.1644H257.013C257.9 59.1644 258.619 58.9727 259.171 58.5932C259.722 58.2136 259.994 57.5785 259.994 56.6916V56.4999C259.994 55.613 259.718 54.9778 259.171 54.5983C258.619 54.2188 257.9 54.0271 257.013 54.0271H253.969V59.1644Z" fill="#1C1C1C"/>
<path d="M267.924 40.956H281.941V44.9508H272.11V50.0243H281.562V54.0191H272.11V59.1565H282.325V63.1513H267.924V40.948V40.956Z" fill="#1C1C1C"/>
<path d="M301.64 63.1593H297.453V56.5C297.453 55.9926 297.322 55.5811 297.058 55.2616C296.794 54.946 296.355 54.7862 295.74 54.7862H290.918V63.1593H286.731V40.9561H295.232C296.375 40.9561 297.377 41.1158 298.244 41.4314C299.111 41.747 299.834 42.1865 300.418 42.7497C300.997 43.309 301.444 43.9602 301.748 44.6992C302.055 45.4383 302.207 46.2332 302.207 47.0801V47.8431C302.207 48.754 301.964 49.6049 301.476 50.3958C300.989 51.1908 300.238 51.798 299.223 52.2215V52.7928C299.962 52.8766 300.549 53.1643 300.985 53.6476C301.416 54.135 301.636 54.7462 301.636 55.4853V63.1593H301.64ZM290.922 50.7913H294.917C295.931 50.7913 296.702 50.5516 297.234 50.0763C297.761 49.6009 298.025 48.9297 298.025 48.0629V47.6834C298.025 46.9443 297.761 46.3051 297.234 45.7658C296.706 45.2265 295.931 44.9589 294.917 44.9589H290.922V50.7953V50.7913Z" fill="#1C1C1C"/>
<path d="M133.601 71.089H147.811V75.0838H137.788V80.1572H147.619V84.1521H137.788V93.2883H133.601V71.085V71.089Z" fill="#1C1C1C"/>
<path d="M152.505 71.089H166.523V75.0839H156.691V80.1573H166.143V84.1522H156.691V89.2895H166.906V93.2843H152.505V71.0811V71.089Z" fill="#1C1C1C"/>
<path d="M182.51 77.8762C182.51 76.9893 182.166 76.2183 181.479 75.5592C180.792 74.904 179.825 74.5764 178.579 74.5764C177.52 74.5764 176.685 74.7921 176.074 75.2276C175.459 75.663 175.155 76.2463 175.155 76.9893C175.155 77.3688 175.231 77.7124 175.379 78.02C175.527 78.3276 175.786 78.6032 176.158 78.8429C176.529 79.0866 177.013 79.3023 177.616 79.4941C178.219 79.6858 178.986 79.8656 179.917 80.0334C182.242 80.4568 184.02 81.1639 185.246 82.1586C186.473 83.1533 187.084 84.6234 187.084 86.5689V86.9484C187.084 87.9831 186.9 88.9219 186.529 89.7568C186.157 90.5917 185.626 91.3068 184.927 91.898C184.228 92.4893 183.385 92.9447 182.39 93.2603C181.395 93.5759 180.277 93.7356 179.026 93.7356C177.568 93.7356 176.282 93.5279 175.171 93.1165C174.061 92.705 173.138 92.1337 172.395 91.4027C171.656 90.6716 171.092 89.8167 170.713 88.834C170.333 87.8513 170.142 86.7766 170.142 85.6141V84.6634H174.328V85.4264C174.328 86.7607 174.716 87.8233 175.487 88.6143C176.258 89.4053 177.46 89.8047 179.086 89.8047C180.357 89.8047 181.295 89.5291 181.911 88.9818C182.522 88.4305 182.829 87.7754 182.829 87.0163C182.829 86.6568 182.765 86.3132 182.638 85.9857C182.51 85.6581 182.29 85.3625 181.97 85.0988C181.655 84.8352 181.219 84.5955 180.668 84.3837C180.117 84.172 179.422 83.9922 178.575 83.8444C177.452 83.6527 176.43 83.405 175.499 83.0974C174.568 82.7898 173.761 82.3823 173.074 81.875C172.387 81.3676 171.852 80.7325 171.472 79.9734C171.093 79.2104 170.901 78.2836 170.901 77.1811V76.9893C170.901 76.0785 171.085 75.2396 171.456 74.4686C171.828 73.6976 172.343 73.0264 173.01 72.4552C173.677 71.8839 174.48 71.4405 175.419 71.1209C176.358 70.8053 177.412 70.6455 178.575 70.6455C179.885 70.6455 181.048 70.8293 182.062 71.2008C183.077 71.5723 183.928 72.0717 184.615 72.7068C185.302 73.342 185.821 74.0691 186.169 74.896C186.517 75.7229 186.692 76.5898 186.692 77.4966V78.6392H182.506V77.8762H182.51Z" fill="#1C1C1C"/>
<path d="M189.805 71.0889H205.792V75.0837H199.892V93.2882H195.705V75.0837H189.805V71.0889Z" fill="#1C1C1C"/>
<path d="M54.5312 80.413V27.5493H41.3162V40.7682H27.8776V53.9831H41.3162V80.413H27.8776V93.6279H67.5264V80.413H54.5312Z" fill="#1C1C1C"/>
<path d="M93.9125 80.4371V40.7883H80.6976V54.0072H67.4827V67.2222H80.6976V93.652H93.9125H107.127V80.4371H93.9125Z" fill="#1C1C1C"/>
<path d="M27.9657 120.525L14.4432 107.222V14.5541H107.111L120.634 27.8569V0.708008H0.788818V120.553L27.9657 120.525Z" fill="#1C1C1C"/>
</g>
<defs>
<clipPath id="clip0_203_970">
<rect width="301.422" height="119.845" fill="white" transform="translate(0.788818 0.708008)"/>
</clipPath>
</defs>
</svg>
